<?xml version="1.0" encoding="UTF-8"?>
<svg version="1.1" xmlns="http://www.w3.org/2000/svg" width="512" height="512">
<path d="M0 0 C5.47166736 5.4189284 8.07136023 10.08849271 8.1953125 17.9609375 C8.18400283 19.76574175 8.15820508 21.57046579 8.125 23.375 C8.08375 26.55125 8.0425 29.7275 8 33 C19.55 33 31.1 33 43 33 C42.8820906 26.73286764 42.8820906 26.73286764 42.72973633 20.46655273 C42.64711921 11.70469663 45.1470179 6.19704768 51.11328125 -0.26953125 C55.78125188 -4.55092046 61.77790597 -5.97682647 68 -6 C75.00129797 -5.42591853 80.8215747 -2.74688986 86 2 C89.91311604 7.37587609 92.14531698 12.65562302 92.09765625 19.328125 C92.09515869 20.0490332 92.09266113 20.76994141 92.09008789 21.51269531 C92.08098389 22.41600586 92.07187988 23.31931641 92.0625 24.25 C92.041875 27.1375 92.02125 30.025 92 33 C103.22 33 114.44 33 126 33 C125.938125 30.215625 125.87625 27.43125 125.8125 24.5625 C125.75373414 16.13411907 126.43897523 9.91686141 131.125 2.75 C136.48489323 -2.37685439 142.24518569 -5.64505816 149.74609375 -6.0625 C157.57902229 -5.84529574 163.40189029 -3.57371707 169 2 C172.77154888 6.95074282 175.13789073 11.35115483 175.09765625 17.66796875 C175.09515869 18.47258545 175.09266113 19.27720215 175.09008789 20.10620117 C175.07643188 21.63144409 175.07643188 21.63144409 175.0625 23.1875 C175.041875 26.425625 175.02125 29.66375 175 33 C186.55 33 198.1 33 210 33 C209.84290186 26.44851976 209.84290186 26.44851976 209.63964844 19.8984375 C209.55081955 12.49411951 211.05538666 7.36025459 215.96484375 1.7578125 C221.98353485 -3.22399518 226.98034788 -5.85576165 235 -6 C241.39853923 -5.3959421 247.20107184 -3.35532976 252 1 C257.90922624 8.81045555 259.16650134 15.26837667 259.0625 24.8125 C259.05798828 25.60076172 259.05347656 26.38902344 259.04882812 27.20117188 C259.03711312 29.13414761 259.01917998 31.06708393 259 33 C260.27004883 32.9685791 261.54009766 32.9371582 262.84863281 32.90478516 C267.61204122 32.79524943 272.37534106 32.72696651 277.13964844 32.67041016 C279.19192292 32.64044759 281.24407166 32.59966217 283.29589844 32.54736328 C307.21798533 31.95338741 307.21798533 31.95338741 317.23730469 41.02587891 C323.16215517 47.02839597 325.32777567 53.88334834 325.38724393 62.15715933 C325.3785054 63.0443385 325.36976688 63.93151767 325.36076355 64.84558105 C325.36332682 65.80796771 325.3658901 66.77035436 325.36853105 67.76190424 C325.37345329 70.97099987 325.35700155 74.17961994 325.34057617 77.38867188 C325.33972956 79.69524118 325.3402057 82.00181129 325.34190369 84.30838013 C325.34276374 90.55984418 325.32513606 96.81113524 325.30418181 103.06255913 C325.2854169 109.59951778 325.28366471 116.13648048 325.28010559 122.67346191 C325.272343 133.64203894 325.2531099 144.61055542 325.22631836 155.57910156 C325.1987584 166.87402023 325.17753432 178.16892166 325.16479492 189.46386719 C325.16400675 190.16072236 325.16321858 190.85757754 325.16240653 191.57554954 C325.15849126 195.07165703 325.15470017 198.56776464 325.15097082 202.06387234 C325.11989819 231.04262345 325.06685894 260.0213102 325 289 C326.11224442 289.30998428 327.22448883 289.61996857 328.37043762 289.93934631 C332.67959874 291.19859665 335.92918266 293.05015567 339.6875 295.4375 C340.38302979 295.87707031 341.07855957 296.31664062 341.79516602 296.76953125 C348.56905207 301.17399579 354.33293716 306.26655868 360 312 C361.18142578 313.16595703 361.18142578 313.16595703 362.38671875 314.35546875 C372.82934879 325.23548644 380.43983511 338.67011477 385 353 C385.20882813 353.64001953 385.41765625 354.28003906 385.6328125 354.93945312 C393.93735135 381.61384214 389.87709773 410.70648161 377.33984375 435.25 C373.52661399 442.05995929 369.01539116 448.03952443 364 454 C363.236875 455.010625 362.47375 456.02125 361.6875 457.0625 C343.16376162 477.30937683 316.38393355 488.4000684 289.32128906 489.9140625 C262.99167322 490.8888232 235.72693592 482.18390202 216.25 464.125 C211.36146581 459.43681557 211.36146581 459.43681557 209.65497643 457.37459803 C207.41274086 455.51223157 206.02345371 455.6245205 203.12975216 455.62361908 C202.11976129 455.61601264 201.10977041 455.60840619 200.06917375 455.60056925 C198.39995083 455.61091015 198.39995083 455.61091015 196.69700623 455.62145996 C195.51726842 455.61692983 194.33753062 455.6123997 193.12204319 455.6077323 C189.84155927 455.59809444 186.56140147 455.60190159 183.28092659 455.61123729 C179.74494837 455.61801956 176.20901834 455.60750805 172.67304993 455.59895325 C166.54256133 455.58637078 160.41214325 455.58441937 154.28164482 455.58930969 C145.40703949 455.59611157 136.53254065 455.58361044 127.65795434 455.56580251 C113.24585118 455.53713112 98.83375951 455.51963483 84.42163086 455.51123047 C83.55867218 455.51072329 82.69571351 455.51021611 81.80660457 455.50969356 C75.68356986 455.50616759 69.56053497 455.50303872 63.4375 455.5 C56.4553221 455.49653308 49.47314435 455.49288322 42.4909668 455.48876953 C41.63118028 455.48826692 40.77139377 455.4877643 39.88555311 455.48724645 C25.53649044 455.47849463 11.18746713 455.45803988 -3.16156906 455.42928743 C-12.00993629 455.41212483 -20.85819197 455.40551485 -29.70657366 455.41259348 C-35.77533303 455.41678068 -41.84402223 455.41039768 -47.91276527 455.39579475 C-51.41171881 455.38775563 -54.91049822 455.3845935 -58.40945053 455.39461708 C-62.20917247 455.40300758 -66.00842686 455.39299684 -69.80812073 455.37854004 C-70.90532096 455.38543397 -72.00252119 455.39232791 -73.13296992 455.39943075 C-82.41678502 455.33075372 -90.79679273 453.8398864 -98.17578125 447.8828125 C-104.02167195 441.84915229 -107.12234606 435.07601708 -107.13142776 426.74983692 C-107.13526891 425.43207384 -107.13911005 424.11431076 -107.1430676 422.75661546 C-107.1422873 421.28531947 -107.1414085 419.81402354 -107.14044189 418.34272766 C-107.14302468 416.78666475 -107.1460376 415.2306025 -107.1494453 413.67454118 C-107.15752885 409.38696591 -107.15930562 405.09940738 -107.16004276 400.81182539 C-107.16189098 396.19204547 -107.16943719 391.57227428 -107.17617798 386.95249939 C-107.18977183 376.84502541 -107.19578776 366.73755539 -107.20018864 356.63007379 C-107.20294949 350.32074095 -107.20718658 344.01140966 -107.21169281 337.70207787 C-107.22388725 320.23900734 -107.23418596 302.77593804 -107.2375679 285.31286335 C-107.23778747 284.19472416 -107.23800703 283.07658496 -107.23823325 281.92456276 C-107.23856067 280.24329922 -107.23856067 280.24329922 -107.2388947 278.52807075 C-107.23933817 276.25675094 -107.23978473 273.98543113 -107.24023438 271.71411133 C-107.2404558 270.58745393 -107.24067723 269.46079654 -107.24090537 268.29999801 C-107.24485337 250.0441041 -107.26230668 231.78825011 -107.2855939 213.53237162 C-107.30930061 194.79663082 -107.32176946 176.06091005 -107.32293582 157.32515401 C-107.32385301 146.80281507 -107.32961621 136.28052813 -107.34775543 125.75820351 C-107.36314729 116.79788 -107.36828232 107.83762455 -107.36001733 98.87729035 C-107.35610748 94.30520052 -107.35705674 89.73324778 -107.37107468 85.16117477 C-107.38379354 80.97452216 -107.38263383 76.78810993 -107.37048396 72.60145774 C-107.36852346 71.08795385 -107.37162172 69.57443305 -107.38032833 68.06095294 C-107.44281336 56.46356331 -106.36440981 48.72621345 -98.1953125 39.984375 C-93.27380961 35.53575673 -87.28426768 32.86738032 -80.62036133 32.88647461 C-79.73967484 32.88655014 -78.85898834 32.88662567 -77.95161438 32.88670349 C-77.00465195 32.89186478 -76.05768951 32.89702606 -75.08203125 32.90234375 C-74.10965012 32.9037587 -73.13726898 32.90517365 -72.13542175 32.90663147 C-69.02774996 32.91223183 -65.92015004 32.92478438 -62.8125 32.9375 C-60.70638125 32.94251495 -58.60026137 32.94707787 -56.49414062 32.95117188 C-51.32939936 32.96220138 -46.16471187 32.97946625 -41 33 C-41.05220703 31.19015625 -41.05220703 31.19015625 -41.10546875 29.34375 C-41.13362984 27.72918072 -41.16092749 26.11459621 -41.1875 24.5 C-41.21263672 23.70851563 -41.23777344 22.91703125 -41.26367188 22.1015625 C-41.35859162 14.38142291 -39.3007569 7.82170411 -34.578125 1.60546875 C-25.39923723 -7.73245915 -9.95031641 -8.56190016 0 0 Z M-23 12 C-26.3584686 16.22364786 -26.36642744 20.13838279 -26.1875 25.3125 C-26.125625 27.849375 -26.06375 30.38625 -26 33 C-19.73 33 -13.46 33 -7 33 C-6.896875 30.133125 -6.79375 27.26625 -6.6875 24.3125 C-6.64197998 23.41829346 -6.59645996 22.52408691 -6.54956055 21.6027832 C-6.47388602 17.24930076 -6.58649135 15.52746235 -9.3671875 11.98046875 C-14.52419969 8.10123258 -17.62580451 8.49508989 -23 12 Z M60 12 C57.93276286 15.10085571 57.75502577 15.72931681 57.8046875 19.23046875 C57.80968262 19.95387451 57.81467773 20.67728027 57.81982422 21.42260742 C57.83803223 22.33502197 57.85624023 23.24743652 57.875 24.1875 C57.91625 27.095625 57.9575 30.00375 58 33 C64.27 33 70.54 33 77 33 C77.0825 30.48375 77.165 27.9675 77.25 25.375 C77.30462402 24.20396729 77.30462402 24.20396729 77.36035156 23.00927734 C77.44078614 17.89908677 76.38474353 15.03353705 73 11 C67.89085515 8.1615862 64.96307762 9.23212979 60 12 Z M144 12 C140.6415314 16.22364786 140.63357256 20.13838279 140.8125 25.3125 C140.874375 27.849375 140.93625 30.38625 141 33 C147.27 33 153.54 33 160 33 C160.103125 30.31875 160.20625 27.6375 160.3125 24.875 C160.35802002 24.04210449 160.40354004 23.20920898 160.45043945 22.35107422 C160.52558481 18.28740732 160.23392912 15.73359472 157.6328125 12.51171875 C155.23528229 9.93642529 155.23528229 9.93642529 152.5625 8.9375 C148.99436584 9.02452766 146.9783509 10.05759724 144 12 Z M227 12 C224.93276286 15.10085571 224.75502577 15.72931681 224.8046875 19.23046875 C224.80968262 19.95387451 224.81467773 20.67728027 224.81982422 21.42260742 C224.83803223 22.33502197 224.85624023 23.24743652 224.875 24.1875 C224.91625 27.095625 224.9575 30.00375 225 33 C231.27 33 237.54 33 244 33 C244.061875 30.64875 244.12375 28.2975 244.1875 25.875 C244.21481201 25.14651855 244.24212402 24.41803711 244.27026367 23.66748047 C244.32905995 19.00550422 243.51090498 15.91422831 241 12 C235.47333766 8.49269505 232.59057014 8.71142933 227 12 Z " fill="#010101" transform="translate(115,14)"/>
<path d="M0 0 C133.32 0 266.64 0 404 0 C404 52.14 404 104.28 404 158 C398.06 157.34 392.12 156.68 386 156 C381.5946347 155.87721947 377.27075884 155.80088215 372.875 155.875 C371.27978516 155.88853516 371.27978516 155.88853516 369.65234375 155.90234375 C367.10129179 155.9253262 364.55079267 155.95777909 362 156 C361.9906543 154.95545654 361.98130859 153.91091309 361.97167969 152.8347168 C361.93181126 148.959771 361.86606259 145.08562186 361.79248047 141.21118164 C361.76425232 139.5342024 361.7430469 137.85708965 361.72900391 136.17993164 C361.70759875 133.76899782 361.66096574 131.35967216 361.609375 128.94921875 C361.60753204 127.82407112 361.60753204 127.82407112 361.60565186 126.67619324 C361.5204416 123.64911838 361.37374189 121.51452415 359.56762695 119.02807617 C355.53002534 117.4114231 351.61828937 117.57281896 347.30859375 117.6015625 C346.36693863 117.59869232 345.42528351 117.59582214 344.45509338 117.59286499 C342.46720782 117.59082587 340.47930212 117.5963451 338.49145508 117.60888672 C335.44502058 117.62496032 332.3999092 117.60902356 329.35351562 117.58984375 C327.42187207 117.59182586 325.49022933 117.59566886 323.55859375 117.6015625 C322.64605331 117.59548981 321.73351288 117.58941711 320.7933197 117.5831604 C319.52168724 117.59734512 319.52168724 117.59734512 318.22436523 117.61181641 C317.47920151 117.61420319 316.73403778 117.61658997 315.96629333 117.61904907 C313.39507755 118.11719806 312.52476168 118.88692264 311 121 C310.54811107 123.04994588 310.54811107 123.04994588 310.61181641 125.33203125 C310.60235992 126.20303467 310.59290344 127.07403809 310.5831604 127.97143555 C310.58923309 128.90898682 310.59530579 129.84653809 310.6015625 130.8125 C310.59869232 131.77776611 310.59582214 132.74303223 310.59286499 133.73754883 C310.59082339 135.77848904 310.59635993 137.81944877 310.60888672 139.86035156 C310.6249388 142.9880744 310.60904105 146.11450496 310.58984375 149.2421875 C310.59182616 151.22396119 310.5956698 153.20573408 310.6015625 155.1875 C310.59245346 156.5938269 310.59245346 156.5938269 310.5831604 158.02856445 C310.59261688 158.89956787 310.60207336 159.77057129 310.61181641 160.66796875 C310.61420319 161.43391357 310.61658997 162.1998584 310.61904907 162.98901367 C311.10378931 165.54788914 311.95386344 166.43068142 314 168 C316.73230305 168.57775884 316.73230305 168.57775884 319.6875 168.6875 C320.68136719 168.75324219 321.67523438 168.81898438 322.69921875 168.88671875 C323.83810547 168.94279297 323.83810547 168.94279297 325 169 C322.2111504 171.94378569 319.35060247 174.22637689 316 176.5 C306.61662628 183.23291608 298.57425611 191.50385229 292 201 C291.01 200.67 290.02 200.34 289 200 C287.62521239 199.89507556 286.24609113 199.84165605 284.86743164 199.82299805 C284.03969742 199.81016281 283.2119632 199.79732758 282.35914612 199.78410339 C281.46847946 199.77671646 280.57781281 199.76932953 279.66015625 199.76171875 C278.7416539 199.753647 277.82315155 199.74557526 276.8768158 199.73725891 C274.93425376 199.72343259 272.99166757 199.71270394 271.04907227 199.70483398 C268.07717142 199.68758515 265.10637291 199.64368243 262.13476562 199.59960938 C260.24740401 199.58948526 258.36003295 199.58096828 256.47265625 199.57421875 C255.58401382 199.55671066 254.6953714 199.53920258 253.77980042 199.52116394 C250.11111309 199.53408146 247.68091675 199.62130868 244.44116211 201.4230957 C242.21192064 205.40914411 242.42863354 209.16061237 242.46875 213.65625 C242.4649231 214.59553345 242.46109619 215.53481689 242.45715332 216.50256348 C242.45443424 218.48625766 242.46179516 220.4699877 242.47851562 222.45361328 C242.49992539 225.48942016 242.47871393 228.52286046 242.453125 231.55859375 C242.45576828 233.48698439 242.46089325 235.41537356 242.46875 237.34375 C242.46065308 238.25112915 242.45255615 239.1585083 242.44421387 240.09338379 C242.50126448 243.92889836 242.54472524 246.28766719 244.63964844 249.56542969 C247.67445555 251.4099194 249.75266233 251.54250306 253.296875 251.609375 C254.50214844 251.64160156 255.70742188 251.67382812 256.94921875 251.70703125 C258.20347656 251.72121094 259.45773437 251.73539063 260.75 251.75 C262.01972656 251.77964844 263.28945313 251.80929687 264.59765625 251.83984375 C267.73183485 251.91053951 270.86526956 251.96324012 274 252 C274.08302368 253.06528931 274.08302368 253.06528931 274.16772461 254.15209961 C274.42280682 257.41401979 274.68013822 260.67575892 274.9375 263.9375 C275.02451172 265.05447266 275.11152344 266.17144531 275.20117188 267.32226562 C275.28818359 268.42119141 275.37519531 269.52011719 275.46484375 270.65234375 C275.543396 271.65257568 275.62194824 272.65280762 275.70288086 273.68334961 C275.94300761 276.36381137 276.21866892 279.0331993 276.51856995 281.70729065 C276.60870141 282.51267556 276.69883287 283.31806047 276.79169559 284.14785099 C276.86043605 284.75906016 276.9291765 285.37026934 277 286 C243.0879304 286.0915403 209.17589151 286.16203096 175.26372581 286.20426132 C171.26077794 286.20926419 167.25783032 286.21444147 163.25488281 286.21972656 C162.45796253 286.2207758 161.66104225 286.22182505 160.83997287 286.22290608 C147.93356837 286.24031493 135.02723508 286.27185524 122.12087284 286.30861118 C108.879363 286.34600729 95.63789048 286.36823303 82.39633 286.37635398 C74.22447095 286.38184453 66.05281318 286.39919057 57.88101609 286.43166587 C51.61658282 286.45529416 45.35230324 286.4578232 39.0878315 286.45243073 C36.51669766 286.45353312 33.94555636 286.46151553 31.37446785 286.4768219 C27.86865598 286.49667296 24.36371085 286.49195607 20.85787964 286.48101807 C19.32577042 286.49849512 19.32577042 286.49849512 17.7627095 286.51632524 C11.844661 286.46629144 8.53111757 285.89885581 4 282 C0.41664248 278.04595033 -0.12543275 274.44686637 -0.12304783 269.22864914 C-0.1250387 268.26593346 -0.12702957 267.30321777 -0.12908077 266.31132889 C-0.12616811 265.25716152 -0.12325544 264.20299416 -0.12025452 263.11688232 C-0.12111053 261.99728119 -0.12196655 260.87768005 -0.12284851 259.72415161 C-0.12450841 255.94726996 -0.1189724 252.17043231 -0.11352539 248.39355469 C-0.11266341 245.64969481 -0.1133079 242.90583576 -0.11389065 240.16197586 C-0.11442263 233.5463989 -0.10980216 226.93083551 -0.10338932 220.31526203 C-0.09619439 212.66411215 -0.09539485 205.01297042 -0.09460449 197.36181641 C-0.08935236 177.15787545 -0.07539128 156.95393752 -0.0625 136.75 C-0.041875 91.6225 -0.02125 46.495 0 0 Z " fill="#EBEDEF" transform="translate(22,140)"/>
<path d="M0 0 C19.49445182 16.40486829 31.63856612 36.67419896 34.78515625 62.34375 C36.50233211 89.00220149 28.52536022 112.82656637 11.03515625 133.03125 C-4.53006819 149.49537798 -27.37207399 160.640578 -50.1875 161.6796875 C-73.642127 162.09733825 -93.59176777 155.6592724 -112.21484375 141.34375 C-112.93929687 140.80363281 -113.66375 140.26351562 -114.41015625 139.70703125 C-132.14369498 125.45558413 -142.16490595 102.86556882 -144.90234375 80.74609375 C-146.99172811 57.99792157 -141.20056836 34.69350425 -126.88037109 16.66357422 C-123.83682895 13.03536016 -120.58455933 9.66925648 -117.21484375 6.34375 C-116.47492188 5.60511719 -115.735 4.86648438 -114.97265625 4.10546875 C-83.76476699 -25.33054402 -33.58668428 -25.72176116 0 0 Z " fill="#6BF3C0" transform="translate(455.21484375,327.65625)"/>
<path d="M0 0 C1.26108078 0.0001133 1.26108078 0.0001133 2.54763794 0.00022888 C3.91020218 0.00797081 3.91020218 0.00797081 5.30029297 0.01586914 C6.22969696 0.01728409 7.15910095 0.01869904 8.1166687 0.02015686 C11.09197171 0.02576486 14.06720011 0.03831871 17.04248047 0.05102539 C19.0568023 0.05603936 21.07112531 0.06060245 23.08544922 0.06469727 C28.02948849 0.07573689 32.97347182 0.0930069 37.91748047 0.11352539 C37.97081543 0.99468018 38.02415039 1.87583496 38.07910156 2.78369141 C38.15725098 3.94570068 38.23540039 5.10770996 38.31591797 6.30493164 C38.38987793 7.45421143 38.46383789 8.60349121 38.54003906 9.78759766 C39.26983719 16.21841262 41.45095749 21.09612 46.22998047 25.48852539 C50.70200236 28.92120744 54.96661717 30.88206703 60.60498047 31.55102539 C63.94324387 31.35194713 63.94324387 31.35194713 66.41748047 29.48852539 C68.20501898 27.14115586 68.20501898 27.14115586 67.85498047 23.98852539 C67.1505336 20.82177607 67.1505336 20.82177607 63.91748047 19.11352539 C61.65264597 18.36678648 59.37195555 17.72593016 57.07373047 17.09008789 C54.91748047 16.11352539 54.91748047 16.11352539 51.91748047 12.11352539 C51.91748047 8.15352539 51.91748047 4.19352539 51.91748047 0.11352539 C74.68748047 0.11352539 97.45748047 0.11352539 120.91748047 0.11352539 C121.90748047 7.53852539 121.90748047 7.53852539 122.91748047 15.11352539 C125.35649696 21.96153323 128.66890664 25.43219507 134.91748047 29.11352539 C139.01224885 30.91522348 142.45186142 31.59891877 146.91748047 31.11352539 C149.37934626 30.14248751 149.37934626 30.14248751 150.91748047 28.11352539 C151.36483109 25.0459783 151.47538373 23.08985611 149.91748047 20.36352539 C147.74262199 18.84445737 147.74262199 18.84445737 144.04248047 18.30102539 C140.74604835 17.53469615 139.69616486 16.93370646 136.91748047 14.67602539 C134.91748047 11.11352539 134.91748047 11.11352539 134.91748047 0.11352539 C158.01748047 0.11352539 181.11748047 0.11352539 204.91748047 0.11352539 C205.24748047 4.40352539 205.57748047 8.69352539 205.91748047 13.11352539 C207.66233901 20.29823705 210.88138884 23.89607135 216.91748047 28.11352539 C221.45717589 30.84315036 225.6234948 31.62256247 230.91748047 31.11352539 C234.05839447 29.52411133 234.05839447 29.52411133 234.31591797 27.23852539 C234.30818359 26.53727539 234.30044922 25.83602539 234.29248047 25.11352539 C234.30021484 24.41227539 234.30794922 23.71102539 234.31591797 22.98852539 C234.05839447 20.70293945 234.05839447 20.70293945 230.91748047 19.11352539 C229.61440674 18.80046661 228.30014608 18.53161094 226.97998047 18.30102539 C224.14224363 17.59551071 222.82140677 17.04147012 220.41748047 15.23852539 C218.91748047 12.11352539 218.91748047 12.11352539 218.91748047 0.11352539 C241.68748047 0.11352539 264.45748047 0.11352539 287.91748047 0.11352539 C288.57748047 5.06352539 289.23748047 10.01352539 289.91748047 15.11352539 C292.34438922 21.92753843 295.64014157 25.51467508 301.91748047 29.11352539 C306.93345874 31.13751662 310.6549482 31.45495519 315.91748047 30.11352539 C318.07250578 26.88098743 318.38604181 25.86201616 317.91748047 22.11352539 C316.9875458 20.26239509 316.9875458 20.26239509 314.91748047 19.11352539 C313.63873047 18.84540039 312.35998047 18.57727539 311.04248047 18.30102539 C307.39819157 17.45382908 305.05942727 16.20153586 302.73779297 13.10009766 C301.64184669 10.44601586 301.72473622 8.25094669 301.79248047 5.39086914 C301.81052734 4.40207764 301.82857422 3.41328613 301.84716797 2.39453125 C301.88197266 1.26543335 301.88197266 1.26543335 301.91748047 0.11352539 C311.59260537 0.04394174 321.2676438 -0.00932829 330.94296455 -0.04191113 C335.43586201 -0.05755114 339.92858796 -0.07875894 344.42138672 -0.11279297 C348.75913041 -0.14544589 353.09670937 -0.16334014 357.4345665 -0.17110634 C359.08753934 -0.17663921 360.74050341 -0.18744362 362.39340591 -0.20366478 C364.71298793 -0.22551832 367.03189371 -0.22843829 369.3515625 -0.22705078 C370.67060577 -0.23371262 371.98964905 -0.24037445 373.34866333 -0.24723816 C377.8501139 0.20780317 381.23583502 1.54372334 384.56201172 4.64868164 C398.70410357 23.14218637 388.91748047 25.50538132 388.91748047 65.11352539 C255.59748047 65.11352539 122.27748047 65.11352539 -15.08251953 65.11352539 C-15.08251953 11.11352539 -15.08251953 11.11352539 -11.08251953 5.11352539 C-7.32012498 1.79903495 -5.00532033 -0.01498599 0 0 Z " fill="#FD636E" transform="translate(37.08251953125,60.886474609375)"/>
<path d="M0 0 C4.48782612 1.93190229 7.40378725 4.70081994 9.76953125 8.96875 C11.7279671 14.57205257 11.72499932 20.71617265 9.44238281 26.19140625 C7.37072963 29.80601523 4.84862282 32.50937044 1.87890625 35.375 C1.32265564 35.92463409 0.76640503 36.47426819 0.19329834 37.04055786 C-1.57635393 38.78695539 -3.35585916 40.52285136 -5.13671875 42.2578125 C-7.46866095 44.54301341 -9.79628856 46.83253968 -12.12109375 49.125 C-12.68170502 49.67715683 -13.24231628 50.22931366 -13.81991577 50.79820251 C-17.28893605 54.23506806 -20.57590365 57.76559803 -23.74023438 61.48730469 C-27.08391973 65.33670758 -30.68050495 68.9434975 -34.26171875 72.5703125 C-35.01324219 73.35083984 -35.76476562 74.13136719 -36.5390625 74.93554688 C-42.33902581 80.8001753 -48.40185446 86.31725942 -56.94921875 86.9453125 C-63.65031465 86.95837507 -69.61486239 82.6009296 -74.2059021 78.09376526 C-74.72705597 77.56137741 -75.24820984 77.02898956 -75.78515625 76.48046875 C-76.34619049 75.92088974 -76.90722473 75.36131073 -77.48526001 74.78477478 C-78.65794481 73.61044292 -79.82574639 72.43121569 -80.98876953 71.24731445 C-82.76590521 69.44105744 -84.56115356 67.65438117 -86.359375 65.86914062 C-87.5024205 64.71986127 -88.64438654 63.56950708 -89.78515625 62.41796875 C-90.31845551 61.88760513 -90.85175476 61.35724152 -91.4012146 60.81080627 C-96.12164959 55.96930615 -97.67553697 52.14163708 -97.76171875 45.4453125 C-97.65966727 40.24068701 -97.02588427 37.30928056 -93.38671875 33.3828125 C-87.62739116 28.00548112 -84.15229156 27.06301173 -76.3515625 27.18359375 C-68.20264812 27.73114926 -63.6875963 33.76388229 -58.38671875 39.3828125 C-55.22054044 37.98455545 -53.11217412 36.34456758 -50.69140625 33.8828125 C-49.98387207 33.16867187 -49.27633789 32.45453125 -48.54736328 31.71875 C-47.79310059 30.94789063 -47.03883789 30.17703125 -46.26171875 29.3828125 C-45.47780762 28.59132813 -44.69389648 27.79984375 -43.88623047 26.984375 C-41.38154604 24.45525706 -38.88338702 21.91984261 -36.38671875 19.3828125 C-33.10078244 16.04375482 -29.80835789 12.71129995 -26.51171875 9.3828125 C-25.75745605 8.61195313 -25.00319336 7.84109375 -24.22607422 7.046875 C-23.51854004 6.33273437 -22.81100586 5.61859375 -22.08203125 4.8828125 C-21.46344238 4.25375 -20.84485352 3.6246875 -20.20751953 2.9765625 C-14.56029519 -1.96646251 -7.02349936 -1.81622406 0 0 Z " fill="#010302" transform="translate(443.38671875,356.6171875)"/>
<path d="M0 0 C0.92152894 0.48677625 1.84305788 0.97355249 2.79251194 1.47507954 C7.87090782 3.6326494 12.87759381 3.42376895 18.31980896 3.39872742 C19.45285039 3.40537424 20.58589181 3.41202107 21.75326782 3.41886932 C25.54580855 3.43750582 29.33803397 3.43489349 33.13061523 3.43237305 C35.85083814 3.43973257 38.57103713 3.45158581 41.29124451 3.46325684 C47.14556402 3.48602589 52.99982411 3.49792501 58.8541851 3.50238609 C67.31853215 3.50885181 75.78277183 3.53179658 84.24707557 3.55872939 C97.98070128 3.6019828 111.71432247 3.63195781 125.44799805 3.65356445 C138.78688785 3.67457848 152.12574065 3.70185727 165.46459961 3.73754883 C166.28717132 3.73974765 167.10974304 3.74194648 167.95724117 3.74421193 C172.08395068 3.75528169 176.21065984 3.76647448 180.33736885 3.77772844 C214.55821466 3.87089307 248.77907609 3.94250053 283 4 C284.17176518 6.12232979 285.33754785 8.24757791 286.5 10.375 C286.83386719 10.97828125 287.16773438 11.5815625 287.51171875 12.203125 C290 16.7734375 290 16.7734375 290 19 C254.8480346 19.09156742 219.69609334 19.16204475 184.54403377 19.20426132 C180.3934507 19.20926411 176.24286787 19.2144414 172.09228516 19.21972656 C171.26598335 19.2207758 170.43968154 19.22182505 169.58834028 19.22290608 C156.21123177 19.24030848 142.83419206 19.27184526 129.45712435 19.30861118 C115.72969937 19.34602521 102.00231041 19.36823683 88.27483654 19.37635398 C79.80510445 19.3818408 71.33556684 19.39916667 62.86589462 19.43166587 C57.05690111 19.45281947 51.24800807 19.45919814 45.43897885 19.45400551 C42.08798786 19.45144496 38.73761023 19.45754374 35.38663292 19.4768219 C31.75015991 19.49671764 28.11451954 19.49193956 24.47802734 19.48101807 C22.89629242 19.49849512 22.89629242 19.49849512 21.28260326 19.51632524 C15.02033493 19.46547649 10.20569328 18.64127307 5 15 C0.37561428 10.13846629 -0.12437253 6.59174426 0 0 Z " fill="#C4CBCD" transform="translate(22,436)"/>
<path d="M0 0 C0.95910782 -0.00478363 1.91821564 -0.00956726 2.90638733 -0.01449585 C4.93296958 -0.01789534 6.95960662 -0.00868946 8.98608398 0.01220703 C12.08376842 0.03894264 15.17781977 0.01247608 18.27539062 -0.01953125 C20.24610173 -0.01622659 22.21681058 -0.00981918 24.1875 0 C25.57363747 -0.01518173 25.57363747 -0.01518173 26.98777771 -0.03067017 C31.24391265 0.04664449 33.58324348 0.29944156 37.24194336 2.61181641 C39.90907589 6.85573786 39.88102888 10.240292 39.82421875 15.1640625 C39.82900238 16.07736328 39.83378601 16.99066406 39.8387146 17.93164062 C39.84210942 19.85809049 39.83293619 21.78459829 39.81201172 23.7109375 C39.78523906 26.65495598 39.81177247 29.5951622 39.84375 32.5390625 C39.84044583 34.41407089 39.83403943 36.28907692 39.82421875 38.1640625 C39.8343399 39.04126953 39.84446106 39.91847656 39.85488892 40.82226562 C39.77582355 44.95771282 39.4799697 47.15935311 37.22607422 50.71630859 C32.92415338 53.44928554 29.44604446 53.38446334 24.44140625 53.328125 C23.50590942 53.33290863 22.5704126 53.33769226 21.60656738 53.34262085 C19.63303949 53.3460161 17.65945507 53.33683989 15.68603516 53.31591797 C12.66961969 53.28914649 9.65692508 53.31567786 6.640625 53.34765625 C4.72004389 53.34435208 2.79946509 53.33794571 0.87890625 53.328125 C-0.46971497 53.34330673 -0.46971497 53.34330673 -1.84558105 53.35879517 C-6.04262145 53.28045482 -8.30158301 53.00577048 -11.90795898 50.71630859 C-14.59617432 46.46911182 -14.54333249 43.09868687 -14.46875 38.1640625 C-14.47116196 37.25076172 -14.47357391 36.33746094 -14.47605896 35.39648438 C-14.47508165 33.47000781 -14.46171568 31.54350277 -14.43676758 29.6171875 C-14.40245383 26.67350576 -14.41611528 23.73282661 -14.43554688 20.7890625 C-14.42864814 18.91404976 -14.41897552 17.03904475 -14.40625 15.1640625 C-14.41120987 14.28685547 -14.41616974 13.40964844 -14.42127991 12.50585938 C-14.34804483 8.6936303 -14.04355404 6.10180504 -12.41943359 2.61181641 C-8.47040459 -0.3699509 -4.82746372 -0.05275745 0 0 Z " fill="#050505" transform="translate(141.83984375,174.3359375)"/>
<path d="M0 0 C1.40324524 -0.00717545 1.40324524 -0.00717545 2.83483887 -0.01449585 C4.80836676 -0.0178911 6.78195118 -0.00871489 8.75537109 0.01220703 C11.77178656 0.03897851 14.78448117 0.01244714 17.80078125 -0.01953125 C19.72136236 -0.01622708 21.64194116 -0.00982071 23.5625 0 C24.46158081 -0.01012115 25.36066162 -0.02024231 26.2869873 -0.03067017 C30.48341698 0.04765878 32.74207633 0.32152965 36.34716797 2.61181641 C39.03567126 6.85464248 39.00222529 10.23139421 38.9453125 15.1640625 C38.95009613 16.07736328 38.95487976 16.99066406 38.95980835 17.93164062 C38.96320317 19.85809049 38.95402994 21.78459829 38.93310547 23.7109375 C38.90633281 26.65495598 38.93286622 29.5951622 38.96484375 32.5390625 C38.96153958 34.41407089 38.95513318 36.28907692 38.9453125 38.1640625 C38.95543365 39.04126953 38.96555481 39.91847656 38.97598267 40.82226562 C38.89712253 44.94697812 38.59700534 47.16163496 36.36303711 50.71630859 C31.99162715 53.47913111 28.38724638 53.38374917 23.30859375 53.328125 C21.86849693 53.33530045 21.86849693 53.33530045 20.39930725 53.34262085 C18.37450517 53.34601622 16.34964801 53.33683925 14.32495117 53.31591797 C11.22515884 53.28911791 8.12897775 53.31569317 5.02929688 53.34765625 C3.05988784 53.34435266 1.09048106 53.33794748 -0.87890625 53.328125 C-2.26808006 53.34330673 -2.26808006 53.34330673 -3.68531799 53.35879517 C-7.75791546 53.28454479 -9.99046139 53.21396658 -13.29833984 50.71630859 C-15.27532627 46.46806448 -15.31137491 42.80111784 -15.28515625 38.1640625 C-15.29135483 37.25076172 -15.29755341 36.33746094 -15.30393982 35.39648438 C-15.3110277 33.4700629 -15.30788201 31.54358004 -15.29516602 29.6171875 C-15.28129368 26.6733312 -15.31539261 23.73265082 -15.35351562 20.7890625 C-15.35446682 18.91406172 -15.35260797 17.03905698 -15.34765625 15.1640625 C-15.36091446 14.28685547 -15.37417267 13.40964844 -15.38783264 12.50585938 C-15.32489913 8.36645754 -15.04136538 6.17377279 -12.78686523 2.61181641 C-8.48336318 -0.1202071 -5.00555228 -0.05634863 0 0 Z " fill="#060606" transform="translate(142.71875,256.3359375)"/>
<path d="M0 0 C1.40324524 -0.00717545 1.40324524 -0.00717545 2.83483887 -0.01449585 C4.80836676 -0.0178911 6.78195118 -0.00871489 8.75537109 0.01220703 C11.77178656 0.03897851 14.78448117 0.01244714 17.80078125 -0.01953125 C19.72136236 -0.01622708 21.64194116 -0.00982071 23.5625 0 C24.46158081 -0.01012115 25.36066162 -0.02024231 26.2869873 -0.03067017 C30.4840277 0.04767018 32.74298926 0.32235452 36.34936523 2.61181641 C39.03758057 6.85901318 38.98473874 10.22943813 38.91015625 15.1640625 C38.91256821 16.07736328 38.91498016 16.99066406 38.91746521 17.93164062 C38.9164879 19.85811719 38.90312193 21.78462223 38.87817383 23.7109375 C38.84386008 26.65461924 38.85752153 29.59529839 38.87695312 32.5390625 C38.87005439 34.41407524 38.86038177 36.28908025 38.84765625 38.1640625 C38.85261612 39.04126953 38.85757599 39.91847656 38.86268616 40.82226562 C38.78964275 44.62451753 38.4811596 47.22963354 36.87670898 50.71630859 C32.86213765 53.72903083 29.08352171 53.38022468 24.1875 53.328125 C23.20382446 53.33290863 22.22014893 53.33769226 21.20666504 53.34262085 C19.12880859 53.34602035 17.05089869 53.33681446 14.97314453 53.31591797 C11.79208149 53.28915363 8.614547 53.31566461 5.43359375 53.34765625 C3.41405471 53.34435216 1.39451786 53.33794595 -0.625 53.328125 C-1.57612671 53.33824615 -2.52725342 53.34836731 -3.50720215 53.35879517 C-7.63522972 53.28550521 -9.95545379 53.2368757 -13.31420898 50.71630859 C-15.26931388 46.46761723 -15.31133222 42.79356908 -15.28515625 38.1640625 C-15.29135483 37.25076172 -15.29755341 36.33746094 -15.30393982 35.39648438 C-15.3110277 33.4700629 -15.30788201 31.54358004 -15.29516602 29.6171875 C-15.28129368 26.6733312 -15.31539261 23.73265082 -15.35351562 20.7890625 C-15.35446682 18.91406172 -15.35260797 17.03905698 -15.34765625 15.1640625 C-15.36091446 14.28685547 -15.37417267 13.40964844 -15.38783264 12.50585938 C-15.32489913 8.36645754 -15.04136538 6.17377279 -12.78686523 2.61181641 C-8.48336318 -0.1202071 -5.00555228 -0.05634863 0 0 Z " fill="#060606" transform="translate(142.71875,338.3359375)"/>
<path d="M0 0 C0.96147949 -0.00241196 1.92295898 -0.00482391 2.91357422 -0.00730896 C4.94437794 -0.00633039 6.97520829 0.00706547 9.00585938 0.03198242 C12.1142031 0.06628709 15.21970358 0.05264306 18.328125 0.03320312 C20.30209544 0.04010169 22.27605853 0.04977416 24.25 0.0625 C25.17925293 0.05754013 26.10850586 0.05258026 27.06591797 0.04747009 C30.80533842 0.11571799 33.40027602 0.23114344 36.70898438 2.04711914 C38.92855209 6.09400338 38.69584755 9.95944735 38.65625 14.50390625 C38.6600769 15.46538574 38.66390381 16.42686523 38.66784668 17.41748047 C38.67056602 19.44825285 38.66320329 21.47906024 38.64648438 23.50976562 C38.62507525 26.61798195 38.64628546 29.72388681 38.671875 32.83203125 C38.66923173 34.80599468 38.66410676 36.77995668 38.65625 38.75390625 C38.66434692 39.68315918 38.67244385 40.61241211 38.68078613 41.56982422 C38.62642347 45.31094819 38.52496967 47.8996512 36.70898438 51.21069336 C32.66307733 53.43127859 28.7953748 53.21957335 24.25 53.1953125 C23.28852051 53.20151108 22.32704102 53.20770966 21.33642578 53.21409607 C19.30567436 53.22119307 17.27486474 53.21802233 15.24414062 53.20532227 C12.13563122 53.19145368 9.03013025 53.22553226 5.921875 53.26367188 C3.94791593 53.26462305 1.97395309 53.26276434 0 53.2578125 C-0.92925293 53.27107071 -1.85850586 53.28432892 -2.81591797 53.29798889 C-6.89943004 53.23900641 -9.13869691 53.18329016 -12.45898438 50.68334961 C-14.43092776 46.42973172 -14.44906903 42.76784703 -14.40625 38.12890625 C-14.4100769 37.21560547 -14.41390381 36.30230469 -14.41784668 35.36132812 C-14.42056253 33.43488459 -14.41322424 31.50840397 -14.39648438 29.58203125 C-14.37506968 26.63848417 -14.39629671 23.6973777 -14.421875 20.75390625 C-14.41923167 18.87890088 -14.41410657 17.00389702 -14.40625 15.12890625 C-14.41434692 14.25169922 -14.42244385 13.37449219 -14.43078613 12.47070312 C-14.37242686 8.65516284 -14.07950118 6.0700294 -12.45898438 2.57446289 C-8.49608842 -0.40931619 -4.8379337 -0.0690257 0 0 Z " fill="#020202" transform="translate(209.875,174.37109375)"/>
<path d="M0 0 C0.93691177 -0.00619858 1.87382355 -0.01239716 2.83912659 -0.01878357 C4.81860313 -0.02588053 6.79813937 -0.02270987 8.77758789 -0.01000977 C11.80271602 0.00384356 14.82474311 -0.03020081 17.84960938 -0.06835938 C19.77474034 -0.06931072 21.69987517 -0.06745093 23.625 -0.0625 C24.52721786 -0.07575821 25.42943573 -0.08901642 26.35899353 -0.10267639 C30.56834526 -0.04043473 32.8303699 0.2188167 36.44921875 2.51196289 C39.13352929 6.76087599 39.08238998 10.13211315 39.0078125 15.06640625 C39.01022446 15.97970703 39.01263641 16.89300781 39.01512146 17.83398438 C39.01414415 19.76046094 39.00077818 21.68696598 38.97583008 23.61328125 C38.94151633 26.55696299 38.95517778 29.49764214 38.97460938 32.44140625 C38.96771064 34.31641899 38.95803802 36.191424 38.9453125 38.06640625 C38.95027237 38.94361328 38.95523224 39.82082031 38.96034241 40.72460938 C38.88730125 44.52674432 38.57693315 47.13477381 36.9765625 50.62304688 C32.9473463 53.63738531 29.15503524 53.24442996 24.25 53.16015625 C23.26395279 53.16019653 22.27790558 53.16023682 21.26197815 53.16027832 C19.17987689 53.15492188 17.09777622 53.13733391 15.01586914 53.10839844 C11.82440628 53.06651125 8.63505096 53.06733215 5.44335938 53.07421875 C3.42055822 53.06372749 1.39776795 53.05078973 -0.625 53.03515625 C-1.58128799 53.03495483 -2.53757599 53.03475342 -3.52284241 53.0345459 C-4.41063889 53.01863403 -5.29843536 53.00272217 -6.21313477 52.98632812 C-6.99382828 52.97790894 -7.77452179 52.96948975 -8.57887268 52.96081543 C-11.1987783 52.45483944 -12.07669816 51.7280585 -13.62109375 49.56640625 C-14.0087738 47.52418518 -14.0087738 47.52418518 -14.02514648 45.15844727 C-14.04417274 43.82675255 -14.04417274 43.82675255 -14.06358337 42.46815491 C-14.05917992 41.03372292 -14.05917992 41.03372292 -14.0546875 39.5703125 C-14.05992935 38.58522202 -14.0651712 37.60013153 -14.0705719 36.58518982 C-14.07699669 34.50138288 -14.07564922 32.4175397 -14.06713867 30.33374023 C-14.05863496 27.14436235 -14.08737421 23.95677868 -14.11914062 20.76757812 C-14.12075285 18.74349012 -14.12017469 16.71939894 -14.1171875 14.6953125 C-14.12842148 13.74104874 -14.13965546 12.78678497 -14.15122986 11.80360413 C-14.11111598 7.99381918 -14.04597143 5.33838346 -12.19140625 1.96875 C-8.21314884 -0.20175822 -4.46528808 -0.02449261 0 0 Z " fill="#030303" transform="translate(74.62109375,338.43359375)"/>
<path d="M0 0 C1.40536766 -0.00574036 1.40536766 -0.00574036 2.83912659 -0.01159668 C4.81862463 -0.01431601 6.79815859 -0.00695334 8.77758789 0.00976562 C11.80241374 0.03115107 14.82485795 0.00997719 17.84960938 -0.015625 C19.77474481 -0.01298126 21.69987877 -0.00785532 23.625 0 C24.52721786 -0.00809692 25.42943573 -0.01619385 26.35899353 -0.02453613 C30.23488664 0.03312022 32.89709234 0.30903938 36.44921875 1.94726562 C39.41121009 5.91357589 39.07671471 9.57697149 39.0078125 14.40625 C39.01022446 15.36772949 39.01263641 16.32920898 39.01512146 17.31982422 C39.01414289 19.35062794 39.00074703 21.38145829 38.97583008 23.41210938 C38.94152541 26.5204531 38.95516944 29.62595358 38.97460938 32.734375 C38.96771081 34.70834544 38.95803834 36.68230853 38.9453125 38.65625 C38.95027237 39.58550293 38.95523224 40.51475586 38.96034241 41.47216797 C38.89209451 45.21158842 38.77666906 47.80652602 36.96069336 51.11523438 C32.91380912 53.33480209 29.04836515 53.10209755 24.50390625 53.0625 C23.06168701 53.06824036 23.06168701 53.06824036 21.59033203 53.07409668 C19.55955965 53.07681602 17.52875226 53.06945329 15.49804688 53.05273438 C12.38983055 53.03132525 9.28392569 53.05253546 6.17578125 53.078125 C4.20181782 53.07548173 2.22785582 53.07035676 0.25390625 53.0625 C-0.67534668 53.07059692 -1.60459961 53.07869385 -2.56201172 53.08703613 C-6.30389146 53.03266249 -8.8927482 52.93038116 -12.20507812 51.11523438 C-14.42364393 47.0667343 -14.19195065 43.20178222 -14.15234375 38.65625 C-14.15617065 37.69477051 -14.15999756 36.73329102 -14.16394043 35.74267578 C-14.16665977 33.7119034 -14.15929704 31.68109601 -14.14257812 29.65039062 C-14.121169 26.5421743 -14.14237921 23.43626944 -14.16796875 20.328125 C-14.16532548 18.35416157 -14.16020051 16.38019957 -14.15234375 14.40625 C-14.16044067 13.47699707 -14.1685376 12.54774414 -14.17687988 11.59033203 C-14.12236311 7.83860273 -14.02528713 5.26065881 -12.18920898 1.94726562 C-8.21291418 -0.24519657 -4.47139898 -0.04003859 0 0 Z " fill="#020203" transform="translate(277.62109375,256.46875)"/>
<path d="M0 0 C0.93691177 -0.00619858 1.87382355 -0.01239716 2.83912659 -0.01878357 C4.81860313 -0.02588053 6.79813937 -0.02270987 8.77758789 -0.01000977 C11.80271602 0.00384356 14.82474311 -0.03020081 17.84960938 -0.06835938 C19.77474034 -0.06931072 21.69987517 -0.06745093 23.625 -0.0625 C24.52721786 -0.07575821 25.42943573 -0.08901642 26.35899353 -0.10267639 C30.56834526 -0.04043473 32.8303699 0.2188167 36.44921875 2.51196289 C39.13352929 6.76087599 39.08238998 10.13211315 39.0078125 15.06640625 C39.01022446 15.97970703 39.01263641 16.89300781 39.01512146 17.83398438 C39.01414415 19.76046094 39.00077818 21.68696598 38.97583008 23.61328125 C38.94151633 26.55696299 38.95517778 29.49764214 38.97460938 32.44140625 C38.96771064 34.31641899 38.95803802 36.191424 38.9453125 38.06640625 C38.95027237 38.94361328 38.95523224 39.82082031 38.96034241 40.72460938 C38.88731335 44.5261141 38.57761217 47.1336051 36.9765625 50.62084961 C32.95019613 53.63646179 29.15520531 53.26346372 24.25 53.1953125 C23.26395279 53.19772446 22.27790558 53.20013641 21.26197815 53.20262146 C19.17990085 53.20164289 17.09779757 53.18824699 15.01586914 53.16333008 C11.82413702 53.12898943 8.63516788 53.14267862 5.44335938 53.16210938 C3.4205611 53.15521198 1.39776999 53.14554057 -0.625 53.1328125 C-1.58128799 53.13777237 -2.53757599 53.14273224 -3.52284241 53.14784241 C-4.41063889 53.13200607 -5.29843536 53.11616974 -6.21313477 53.09985352 C-7.38417503 53.09055565 -7.38417503 53.09055565 -8.57887268 53.08106995 C-10.62109375 52.56640625 -10.62109375 52.56640625 -12.37133789 50.80992126 C-13.74794002 48.33869656 -14.00521872 46.94242971 -14.02514648 44.13671875 C-14.03783066 43.26901855 -14.05051483 42.40131836 -14.06358337 41.50732422 C-14.06064774 40.57807129 -14.0577121 39.64881836 -14.0546875 38.69140625 C-14.05992935 37.72992676 -14.0651712 36.76844727 -14.0705719 35.77783203 C-14.07698907 33.74708013 -14.07565905 31.71629104 -14.06713867 29.68554688 C-14.05862401 26.57745289 -14.08740212 23.4711939 -14.11914062 20.36328125 C-14.12075262 18.38932347 -14.12017515 16.41536243 -14.1171875 14.44140625 C-14.12842148 13.51215332 -14.13965546 12.58290039 -14.15122986 11.62548828 C-14.11065088 7.8720962 -14.02752712 5.30035996 -12.19140625 1.98461914 C-8.21625993 -0.2087343 -4.47212033 -0.02453008 0 0 Z " fill="#030303" transform="translate(74.62109375,256.43359375)"/>
<path d="M0 0 C1.36995117 -0.00361794 1.36995117 -0.00361794 2.76757812 -0.00730896 C4.69405469 -0.00633165 6.62055973 0.00703432 8.546875 0.03198242 C11.49055674 0.06629617 14.43123589 0.05263472 17.375 0.03320312 C19.25001274 0.04010186 21.12501775 0.04977448 23 0.0625 C24.31581055 0.0550602 24.31581055 0.0550602 25.65820312 0.04747009 C29.46033807 0.12051125 32.06836756 0.43087935 35.55664062 2.03125 C38.57097906 6.0604662 38.17802371 9.85277726 38.09375 14.7578125 C38.09379028 15.74385971 38.09383057 16.72990692 38.09387207 17.74583435 C38.08851563 19.82793561 38.07092766 21.91003628 38.04199219 23.99194336 C38.000105 27.18340622 38.0009259 30.37276154 38.0078125 33.56445312 C37.99732124 35.58725428 37.98438348 37.61004455 37.96875 39.6328125 C37.96854858 40.58910049 37.96834717 41.54538849 37.96813965 42.53065491 C37.95222778 43.41845139 37.93631592 44.30624786 37.91992188 45.22094727 C37.91150269 46.00164078 37.9030835 46.78233429 37.89440918 47.58668518 C37.38842866 50.20661427 36.66102697 51.0837321 34.5 52.62890625 C32.45777893 53.02331543 32.45777893 53.02331543 30.09204102 53.04882812 C28.7603463 53.07269592 28.7603463 53.07269592 27.40174866 53.0970459 C26.44546066 53.09724731 25.48917267 53.09744873 24.50390625 53.09765625 C23.51881577 53.10526978 22.53372528 53.1128833 21.51878357 53.12072754 C19.43499283 53.13153512 17.3511479 53.13437898 15.26733398 53.12988281 C12.0776947 53.12891088 8.89046341 53.17051725 5.70117188 53.21484375 C3.67708836 53.22005094 1.65299647 53.22273894 -0.37109375 53.22265625 C-1.32535751 53.23905151 -2.27962128 53.25544678 -3.26280212 53.27233887 C-9.73022501 53.20479054 -9.73022501 53.20479054 -13.09765625 50.68554688 C-15.04807972 46.43427567 -15.09258605 42.759089 -15.06640625 38.12890625 C-15.07260483 37.21560547 -15.07880341 36.30230469 -15.08518982 35.36132812 C-15.0922777 33.43490665 -15.08913201 31.50842379 -15.07641602 29.58203125 C-15.06254368 26.63817495 -15.09664261 23.69749457 -15.13476562 20.75390625 C-15.13571682 18.87890547 -15.13385797 17.00390073 -15.12890625 15.12890625 C-15.14216446 14.25169922 -15.15542267 13.37449219 -15.16908264 12.47070312 C-15.10599924 8.32144251 -14.82531766 6.13964151 -12.55444336 2.57446289 C-8.30661957 -0.13122872 -4.94322476 -0.07471247 0 0 Z " fill="#030303" transform="translate(210.5,338.37109375)"/>
<path d="M0 0 C0.96147949 -0.0038269 1.92295898 -0.00765381 2.91357422 -0.01159668 C4.9443466 -0.01431602 6.97515399 -0.00695329 9.00585938 0.00976562 C12.1140757 0.03117475 15.21998056 0.00996454 18.328125 -0.015625 C20.30208843 -0.01298173 22.27605043 -0.00785676 24.25 0 C25.17925293 -0.00809692 26.10850586 -0.01619385 27.06591797 -0.02453613 C30.8168905 0.02996964 33.39469229 0.12621409 36.70678711 1.96313477 C38.90113694 5.93668716 38.71593059 9.68126959 38.69140625 14.15234375 C38.70070412 15.55771141 38.70070412 15.55771141 38.71018982 16.99147034 C38.71728678 18.97094688 38.71411612 20.95048312 38.70141602 22.92993164 C38.68756269 25.95505977 38.72160706 28.97708686 38.75976562 32.00195312 C38.76071697 33.92708409 38.75885718 35.85221892 38.75390625 37.77734375 C38.76716446 38.67956161 38.78042267 39.58177948 38.79408264 40.51133728 C38.73199955 44.70996522 38.46840471 46.98486114 36.1953125 50.6015625 C31.87683392 53.31572079 28.37969698 53.23375833 23.37109375 53.16015625 C21.964291 53.16377419 21.964291 53.16377419 20.52906799 53.16746521 C18.55131796 53.16648786 16.57354019 53.15312108 14.59594727 53.12817383 C11.56888011 53.0938224 8.54472618 53.10753099 5.51757812 53.12695312 C3.59373758 53.12005563 1.66990456 53.11038412 -0.25390625 53.09765625 C-1.15814835 53.10261612 -2.06239044 53.10757599 -2.99403381 53.11268616 C-6.67638493 53.04362959 -9.1887349 52.91023222 -12.44311523 51.11303711 C-14.6856746 47.06954771 -14.44590568 43.20738029 -14.40625 38.65625 C-14.4100769 37.69477051 -14.41390381 36.73329102 -14.41784668 35.74267578 C-14.42056602 33.7119034 -14.41320329 31.68109601 -14.39648438 29.65039062 C-14.37507525 26.5421743 -14.39628546 23.43626944 -14.421875 20.328125 C-14.41923173 18.35416157 -14.41410676 16.38019957 -14.40625 14.40625 C-14.41434692 13.47699707 -14.42244385 12.54774414 -14.43078613 11.59033203 C-14.37641249 7.84845229 -14.27413116 5.25959555 -12.45898438 1.94726562 C-8.4104843 -0.27130018 -4.54553222 -0.0396069 0 0 Z " fill="#010102" transform="translate(345.875,174.46875)"/>
<path d="M0 0 C0.93691177 -0.00619858 1.87382355 -0.01239716 2.83912659 -0.01878357 C4.81860313 -0.02588053 6.79813937 -0.02270987 8.77758789 -0.01000977 C11.80271602 0.00384356 14.82474311 -0.03020081 17.84960938 -0.06835938 C19.77474034 -0.06931072 21.69987517 -0.06745093 23.625 -0.0625 C24.52721786 -0.07575821 25.42943573 -0.08901642 26.35899353 -0.10267639 C30.56772591 -0.04044389 32.8294644 0.21799358 36.44702148 2.51196289 C39.13162135 6.75650086 39.09987764 10.13407635 39.04296875 15.06640625 C39.04775238 15.97970703 39.05253601 16.89300781 39.0574646 17.83398438 C39.06085942 19.76043424 39.05168619 21.68694204 39.03076172 23.61328125 C39.00398906 26.55729973 39.03052247 29.49750595 39.0625 32.44140625 C39.05919583 34.31641464 39.05278943 36.19142067 39.04296875 38.06640625 C39.0530899 38.94361328 39.06321106 39.82082031 39.07363892 40.72460938 C38.99459057 44.85916607 38.69733908 47.06294193 36.44702148 50.62084961 C32.13141823 53.35746474 28.64148714 53.26903043 23.625 53.1953125 C22.21819725 53.19893044 22.21819725 53.19893044 20.78297424 53.20262146 C18.80522421 53.20164411 16.82744644 53.18827733 14.84985352 53.16333008 C11.82278636 53.12897865 8.79863243 53.14268724 5.77148438 53.16210938 C3.84764383 53.15521188 1.92381081 53.14554037 0 53.1328125 C-0.9042421 53.13777237 -1.80848419 53.14273224 -2.74012756 53.14784241 C-6.42247868 53.07878584 -8.93482865 52.94538847 -12.18920898 51.14819336 C-14.43176835 47.10470396 -14.19199943 43.24253654 -14.15234375 38.69140625 C-14.15617065 37.72992676 -14.15999756 36.76844727 -14.16394043 35.77783203 C-14.16665977 33.74705965 -14.15929704 31.71625226 -14.14257812 29.68554688 C-14.121169 26.57733055 -14.14237921 23.47142569 -14.16796875 20.36328125 C-14.16532548 18.38931782 -14.16020051 16.41535582 -14.15234375 14.44140625 C-14.16044067 13.51215332 -14.1685376 12.58290039 -14.17687988 11.62548828 C-14.12237411 7.87451575 -14.02612966 5.29671396 -12.18920898 1.98461914 C-8.21565659 -0.20973069 -4.47107416 -0.02452434 0 0 Z " fill="#020202" transform="translate(74.62109375,174.43359375)"/>
<path d="M0 0 C1.37350868 0.00349709 1.37350868 0.00349709 2.77476501 0.00706482 C4.70548859 0.01678587 6.63618434 0.03853516 8.56665039 0.0715332 C11.5207748 0.12098379 14.4732332 0.13301803 17.42773438 0.13867188 C19.30600729 0.15275719 21.18426576 0.16896136 23.0625 0.1875 C24.38605247 0.19554405 24.38605247 0.19554405 25.73634338 0.20375061 C26.56077438 0.21973801 27.38520538 0.2357254 28.23461914 0.25219727 C28.95678116 0.26283707 29.67894318 0.27347687 30.42298889 0.28443909 C32.80706805 0.60454334 34.42083465 1.30151454 36.46484375 2.55859375 C37.61390752 4.85672129 37.60894751 6.20419122 37.6418457 8.76123047 C37.66109856 10.06300735 37.66109856 10.06300735 37.68074036 11.39108276 C37.68812729 12.33065826 37.69551422 13.27023376 37.703125 14.23828125 C37.71119675 15.20259064 37.71926849 16.16690002 37.72758484 17.16043091 C37.74142855 19.20312703 37.75214942 21.24584631 37.76000977 23.28857422 C37.77723676 26.41418156 37.82112196 29.53873516 37.86523438 32.6640625 C37.87535992 34.64712763 37.88387646 36.63020176 37.890625 38.61328125 C37.90813309 39.54880829 37.92564117 40.48433533 37.94367981 41.44821167 C37.93108181 45.21247766 37.87418274 47.80748896 36.05541992 51.14477539 C32.00375967 53.35598682 28.1365734 53.14926808 23.58984375 53.125 C22.62836426 53.13119858 21.66688477 53.13739716 20.67626953 53.14378357 C18.64551811 53.15088057 16.61470849 53.14770983 14.58398438 53.13500977 C11.47547497 53.12114118 8.369974 53.15521976 5.26171875 53.19335938 C3.28775968 53.19431055 1.31379684 53.19245184 -0.66015625 53.1875 C-1.58940918 53.20075821 -2.51866211 53.21401642 -3.47607422 53.22767639 C-7.55885766 53.16870443 -9.79823398 53.11391607 -13.11694336 50.61303711 C-15.09007067 46.3634596 -15.1277801 42.69546216 -15.1015625 38.05859375 C-15.10776108 37.14529297 -15.11395966 36.23199219 -15.12034607 35.29101562 C-15.12743395 33.36459415 -15.12428826 31.43811129 -15.11157227 29.51171875 C-15.09769993 26.56786245 -15.13179886 23.62718207 -15.16992188 20.68359375 C-15.17087307 18.80859297 -15.16901422 16.93358823 -15.1640625 15.05859375 C-15.17732071 14.18138672 -15.19057892 13.30417969 -15.20423889 12.40039062 C-15.1411598 8.25141351 -14.85827356 6.06717878 -12.59179688 2.49975586 C-8.32573179 -0.20946806 -4.95705848 -0.10998295 0 0 Z " fill="#030303" transform="translate(210.53515625,256.44140625)"/>
<path d="M0 0 C0.96147949 -0.0038269 1.92295898 -0.00765381 2.91357422 -0.01159668 C4.9443466 -0.01431602 6.97515399 -0.00695329 9.00585938 0.00976562 C12.1140757 0.03117475 15.21998056 0.00996454 18.328125 -0.015625 C20.30208843 -0.01298173 22.27605043 -0.00785676 24.25 0 C25.17925293 -0.00809692 26.10850586 -0.01619385 27.06591797 -0.02453613 C30.80704194 0.02982653 33.39574495 0.13128033 36.70678711 1.94726562 C38.92737234 5.99317267 38.7156671 9.8608752 38.69140625 14.40625 C38.70070412 15.84846924 38.70070412 15.84846924 38.71018982 17.31982422 C38.71728682 19.35057564 38.71411608 21.38138526 38.70141602 23.41210938 C38.68754743 26.52061878 38.72162601 29.62611975 38.75976562 32.734375 C38.7607168 34.70833407 38.75885809 36.68229691 38.75390625 38.65625 C38.76716446 39.58550293 38.78042267 40.51475586 38.79408264 41.47216797 C38.73526699 45.54412976 38.67564425 47.79452644 36.1953125 51.11303711 C31.87001933 53.1109401 28.08656544 53.12357917 23.37109375 53.09765625 C22.43322525 53.10385483 21.49535675 53.11005341 20.52906799 53.11643982 C18.55137162 53.12352797 16.57361546 53.12038155 14.59594727 53.10766602 C11.56871131 53.09377849 8.54455418 53.12791108 5.51757812 53.16601562 C3.59374924 53.16696665 1.66991649 53.16510888 -0.25390625 53.16015625 C-1.15814835 53.17341446 -2.06239044 53.18667267 -2.99403381 53.20033264 C-7.01093321 53.14071497 -9.17404119 53.05795201 -12.44311523 50.6015625 C-14.46175483 46.27310358 -14.44865219 42.50210242 -14.40625 37.77734375 C-14.4100769 36.83947525 -14.41390381 35.90160675 -14.41784668 34.93531799 C-14.42056263 32.95760013 -14.41322365 30.97984615 -14.39648438 29.00219727 C-14.37504611 25.97526089 -14.39630903 22.95069149 -14.421875 19.92382812 C-14.41923214 17.99999477 -14.41410802 16.07616288 -14.40625 14.15234375 C-14.41434692 13.24810165 -14.42244385 12.34385956 -14.43078613 11.41221619 C-14.37576534 7.72725149 -14.25546229 5.22126427 -12.45898438 1.96313477 C-8.41386639 -0.27842013 -4.55220709 -0.03966506 0 0 Z " fill="#010101" transform="translate(277.875,174.46875)"/>
<path d="M0 0 C0.99 0.99 0.99 0.99 2 2 C1.84717385 7.31213228 -0.04578115 9.67632625 -3.71582031 13.36279297 C-4.20536697 13.86110123 -4.69491364 14.35940948 -5.19929504 14.87281799 C-6.81326032 16.5087055 -8.44472791 18.12571913 -10.078125 19.7421875 C-11.20888271 20.87631484 -12.33889743 22.01118341 -13.46820068 23.14675903 C-15.83420124 25.52012077 -18.20898316 27.88422906 -20.59033203 30.2421875 C-23.64179273 33.26512892 -26.67021167 36.31000905 -29.6924324 39.36215019 C-32.0202815 41.70806443 -34.3599054 44.04194214 -36.70326996 46.37234879 C-37.82488846 47.49063284 -38.94280721 48.61264044 -40.05692291 49.73839951 C-41.61503622 51.30921162 -43.188281 52.8631027 -44.76660156 54.41357422 C-45.65849182 55.30148651 -46.55038208 56.1893988 -47.46929932 57.10421753 C-50 59 -50 59 -52.71348572 59.36576843 C-55.57540591 58.90795364 -56.51213695 58.05765652 -58.48828125 55.96484375 C-59.10872314 55.32321289 -59.72916504 54.68158203 -60.3684082 54.02050781 C-61.0099585 53.33311523 -61.65150879 52.64572266 -62.3125 51.9375 C-63.64391266 50.55413846 -64.97722651 49.17260403 -66.3125 47.79296875 C-67.26576172 46.80176025 -67.26576172 46.80176025 -68.23828125 45.79052734 C-70.87314617 43.11257567 -73.6810208 40.67916173 -76.58203125 38.296875 C-78 37 -78 37 -80 34 C-79.8125 31.4375 -79.8125 31.4375 -79 29 C-76 27 -76 27 -73.7421875 26.9375 C-68.84893119 28.83346256 -65.79030014 33.14071985 -62.34765625 36.984375 C-59.32971645 40.19466701 -57.59762249 41.82297317 -53.28125 43.1015625 C-49.74268351 42.99203544 -48.81835685 42.81835685 -46.375 40.375 C-45.71371094 39.73175781 -45.05242187 39.08851563 -44.37109375 38.42578125 C-43.58863281 37.62527344 -42.80617188 36.82476562 -42 36 C-40.95108966 34.97074614 -39.90016316 33.94354451 -38.84765625 32.91796875 C-34.29432428 28.45417599 -29.74852957 23.99438763 -25.625 19.125 C-21.9878413 14.92224935 -18.11058051 10.99662366 -14.1875 7.0625 C-13.51605957 6.38654785 -12.84461914 5.7105957 -12.15283203 5.01416016 C-11.51845215 4.38171387 -10.88407227 3.74926758 -10.23046875 3.09765625 C-9.65707764 2.52539307 -9.08368652 1.95312988 -8.49291992 1.36352539 C-5.50558196 -1.36489366 -3.78261294 -1.04021856 0 0 Z " fill="#F4F8F6" transform="translate(439,370)"/>
<path d="M0 0 C8.25 0 16.5 0 25 0 C25 8.25 25 16.5 25 25 C16.75 25 8.5 25 0 25 C0 16.75 0 8.5 0 0 Z " fill="#88C2F4" transform="translate(142,353)"/>
<path d="M0 0 C8.25 0 16.5 0 25 0 C25.0309375 5.9090625 25.0309375 5.9090625 25.0625 11.9375 C25.071604 13.18136475 25.08070801 14.42522949 25.09008789 15.70678711 C25.09258545 16.6788208 25.09508301 17.65085449 25.09765625 18.65234375 C25.10551147 20.15269165 25.10551147 20.15269165 25.11352539 21.68334961 C25 24 25 24 24 25 C22.21928754 25.08726223 20.4351686 25.10699041 18.65234375 25.09765625 C17.68031006 25.09515869 16.70827637 25.09266113 15.70678711 25.09008789 C14.46292236 25.08098389 13.21905762 25.07187988 11.9375 25.0625 C7.998125 25.041875 4.05875 25.02125 0 25 C0 16.75 0 8.5 0 0 Z " fill="#87C2F3" transform="translate(210,353)"/>
<path d="M0 0 C8.25 0 16.5 0 25 0 C25 8.25 25 16.5 25 25 C21.060625 25.020625 17.12125 25.04125 13.0625 25.0625 C11.19670288 25.07615601 11.19670288 25.07615601 9.29321289 25.09008789 C8.3211792 25.09258545 7.34914551 25.09508301 6.34765625 25.09765625 C4.84730835 25.10551147 4.84730835 25.10551147 3.31665039 25.11352539 C1 25 1 25 0 24 C-0.08726223 22.21928754 -0.10699041 20.4351686 -0.09765625 18.65234375 C-0.09515869 17.68031006 -0.09266113 16.70827637 -0.09008789 15.70678711 C-0.08098389 14.46292236 -0.07187988 13.21905762 -0.0625 11.9375 C-0.041875 7.998125 -0.02125 4.05875 0 0 Z " fill="#88C2F3" transform="translate(74,353)"/>
<path d="M0 0 C8.25 0 16.5 0 25 0 C25 7.92 25 15.84 25 24 C16.75 24 8.5 24 0 24 C0 16.08 0 8.16 0 0 Z " fill="#89C5F8" transform="translate(210,271)"/>
<path d="M0 0 C8.25 0 16.5 0 25 0 C25 7.92 25 15.84 25 24 C16.75 24 8.5 24 0 24 C0 16.08 0 8.16 0 0 Z " fill="#89C6F8" transform="translate(142,271)"/>
<path d="M0 0 C8.25 0 16.5 0 25 0 C25 7.92 25 15.84 25 24 C16.75 24 8.5 24 0 24 C0 16.08 0 8.16 0 0 Z " fill="#89C5F8" transform="translate(74,271)"/>
<path d="M0 0 C8.25 0 16.5 0 25 0 C25 7.92 25 15.84 25 24 C16.75 24 8.5 24 0 24 C0 16.08 0 8.16 0 0 Z " fill="#88C5F8" transform="translate(210,189)"/>
<path d="M0 0 C8.25 0 16.5 0 25 0 C25 7.92 25 15.84 25 24 C16.75 24 8.5 24 0 24 C0 16.08 0 8.16 0 0 Z " fill="#89C6F9" transform="translate(142,189)"/>
<path d="M0 0 C8.25 0 16.5 0 25 0 C25 7.92 25 15.84 25 24 C16.75 24 8.5 24 0 24 C0 16.08 0 8.16 0 0 Z " fill="#88C5F8" transform="translate(74,189)"/>
<path d="M0 0 C7.92 0 15.84 0 24 0 C24 7.92 24 15.84 24 24 C16.08 24 8.16 24 0 24 C0 16.08 0 8.16 0 0 Z " fill="#8AC9FD" transform="translate(278,271)"/>
<path d="M0 0 C7.92 0 15.84 0 24 0 C24 7.92 24 15.84 24 24 C16.08 24 8.16 24 0 24 C0 16.08 0 8.16 0 0 Z " fill="#89C8FD" transform="translate(346,271)"/>
<path d="M0 0 C7.92 0 15.84 0 24 0 C24 7.92 24 15.84 24 24 C16.08 24 8.16 24 0 24 C0 16.08 0 8.16 0 0 Z " fill="#8AC9FD" transform="translate(346,189)"/>
<path d="M0 0 C7.92 0 15.84 0 24 0 C24 7.92 24 15.84 24 24 C16.08 24 8.16 24 0 24 C0 16.08 0 8.16 0 0 Z " fill="#8AC9FD" transform="translate(278,189)"/>
<path d="M0 0 C7.92 0 15.84 0 24 0 C24.27615735 8.5608779 23.97831677 15.91379281 21 24 C20 25 20 25 18.05053711 25.11352539 C17.2178833 25.10828857 16.38522949 25.10305176 15.52734375 25.09765625 C14.71773193 25.09515869 13.90812012 25.09266113 13.07397461 25.09008789 C12.03893799 25.08098389 11.00390137 25.07187988 9.9375 25.0625 C6.658125 25.041875 3.37875 25.02125 0 25 C0 16.75 0 8.5 0 0 Z " fill="#86C4F7" transform="translate(278,353)"/>
</svg>
